{
  "accessors": [
    {
      "bufferView": 2,
      "componentType": 5126,
      "count": 65532,
      "max": [
        0.08793199807405472,
        -0.00010800000018207356,
        0.0591449998319149
      ],
      "min": [
        -0.08482199907302856,
        -0.28451400995254517,
        -0.0393190011382103
      ],
      "type": "VEC3"
    },
    {
      "bufferView": 2,
      "byteOffset": 786384,
      "componentType": 5126,
      "count": 65532,
      "max": [
        0.9999939203262329,
        0.9999998807907104,
        0.9999576807022095
      ],
      "min": [
        -0.9999595880508423,
        -0.9999991655349731,
        -0.9999325275421143
      ],
      "type": "VEC3"
    },
    {
      "bufferView": 3,
      "componentType": 5126,
      "count": 65532,
      "max": [
        1.0,
        1.0,
        0.9880221486091614,
        1.0
      ],
      "min": [
        -1.0,
        -1.0,
        -0.9550589919090271,
        -1.0
      ],
      "type": "VEC4"
    },
    {
      "bufferView": 1,
      "componentType": 5126,
      "count": 65532,
      "max": [
        0.9995419979095459,
        0.9528809785842896
      ],
      "min": [
        0.00024399999529123306,
        0.0002690000110305846
      ],
      "type": "VEC2"
    },
    {
      "bufferView": 0,
      "componentType": 5125,
      "count": 309672,
      "type": "SCALAR"
    },
    {
      "bufferView": 2,
      "byteOffset": 1572768,
      "componentType": 5126,
      "count": 65532,
      "max": [
        0.08793199807405472,
        -0.000299000006634742,
        0.056689999997615814
      ],
      "min": [
        -0.08879700303077698,
        -0.2918410003185272,
        -0.04270099848508835
      ],
      "type": "VEC3"
    },
    {
      "bufferView": 2,
      "byteOffset": 2359152,
      "componentType": 5126,
      "count": 65532,
      "max": [
        0.9999974966049194,
        0.9999995231628418,
        0.9999829530715942
      ],
      "min": [
        -0.9999487400054932,
        -0.9999966621398926,
        -0.9999980926513672
      ],
      "type": "VEC3"
    },
    {
      "bufferView": 3,
      "byteOffset": 1048512,
      "componentType": 5126,
      "count": 65532,
      "max": [
        1.0,
        1.0,
        0.9816429615020752,
        1.0
      ],
      "min": [
        -1.0,
        -1.0,
        -0.9803246855735779,
        -1.0
      ],
      "type": "VEC4"
    },
    {
      "bufferView": 1,
      "byteOffset": 524256,
      "componentType": 5126,
      "count": 65532,
      "max": [
        0.9997460246086121,
        0.9616699814796448
      ],
      "min": [
        0.00024399999529123306,
        0.00027799999224953353
      ],
      "type": "VEC2"
    },
    {
      "bufferView": 0,
      "byteOffset": 1238688,
      "componentType": 5125,
      "count": 279948,
      "type": "SCALAR"
    },
    {
      "bufferView": 2,
      "byteOffset": 3145536,
      "componentType": 5126,
      "count": 43129,
      "max": [
        0.08693400025367737,
        -0.00018000000272877514,
        0.05443299934267998
      ],
      "min": [
        -0.08889000117778778,
        -0.28838399052619934,
        -0.04268399998545647
      ],
      "type": "VEC3"
    },
    {
      "bufferView": 2,
      "byteOffset": 3663084,
      "componentType": 5126,
      "count": 43129,
      "max": [
        0.9999939203262329,
        0.9999995231628418,
        0.9999502897262573
      ],
      "min": [
        -0.9999266862869263,
        -0.9999942779541016,
        -0.9999325275421143
      ],
      "type": "VEC3"
    },
    {
      "bufferView": 3,
      "byteOffset": 2097024,
      "componentType": 5126,
      "count": 43129,
      "max": [
        1.0,
        1.0,
        0.9607580900192261,
        1.0
      ],
      "min": [
        -1.0,
        -1.0,
        -0.9783502221107483,
        -1.0
      ],
      "type": "VEC4"
    },
    {
      "bufferView": 1,
      "byteOffset": 1048512,
      "componentType": 5126,
      "count": 43129,
      "max": [
        0.9997349977493286,
        0.9772949814796448
      ],
      "min": [
        0.00024399999529123306,
        0.0002589999930933118
      ],
      "type": "VEC2"
    },
    {
      "bufferView": 0,
      "byteOffset": 2358480,
      "componentType": 5125,
      "count": 160380,
      "type": "SCALAR"
    }
  ],
  "asset": {
    "extras": {
      "author": "JPDV (https://sketchfab.com/JPDV)",
      "license": "CC-BY-4.0 (http://creativecommons.org/licenses/by/4.0/)",
      "source": "https://sketchfab.com/3d-models/devil-gargoyle-sitting-on-globe-c45b02408bb44e7884d7c5fdc7e5b422",
      "title": "Devil Gargoyle Sitting on Globe"
    },
    "generator": "Sketchfab-16.12.0",
    "version": "2.0"
  },
  "bufferViews": [
    {
      "buffer": 0,
      "byteLength": 3000000,
      "name": "floatBufferViews",
      "target": 34963
    },
    {
      "buffer": 0,
      "byteLength": 1393544,
      "byteOffset": 3000000,
      "byteStride": 8,
      "name": "floatBufferViews",
      "target": 34962
    },
    {
      "buffer": 0,
      "byteLength": 4180632,
      "byteOffset": 4393544,
      "byteStride": 12,
      "name": "floatBufferViews",
      "target": 34962
    },
    {
      "buffer": 0,
      "byteLength": 2787088,
      "byteOffset": 8574176,
      "byteStride": 16,
      "name": "floatBufferViews",
      "target": 34962
    }
  ],
  "buffers": [
    {
      "byteLength": 11361264,
      "uri": "scene.bin"
    }
  ],
  "images": [
    {
      "uri": "textures/DevilGlobe_Model_7_u1_v1_baseColor.jpeg"
    },
    {
      "uri": "textures/DevilGlobe_Model_7_u1_v1_metallicRoughness.png"
    },
    {
      "uri": "textures/DevilGlobe_Model_7_u1_v1_normal.jpeg"
    }
  ],
  "materials": [
    {
      "doubleSided": true,
      "name": "DevilGlobe_Model_7_u1_v1",
      "normalTexture": {
        "index": 2
      },
      "occlusionTexture": {
        "index": 1
      },
      "pbrMetallicRoughness": {
        "baseColorTexture": {
          "index": 0
        },
        "metallicFactor": 0.0,
        "metallicRoughnessTexture": {
          "index": 1
        },
        "roughnessFactor": 0.6439396753726283
      }
    }
  ],
  "meshes": [
    {
      "name": "Object_0",
      "primitives": [
        {
          "attributes": {
            "NORMAL": 1,
            "POSITION": 0,
            "TANGENT": 2,
            "TEXCOORD_0": 3
          },
          "indices": 4,
          "material": 0,
          "mode": 4
        }
      ]
    },
    {
      "name": "Object_1",
      "primitives": [
        {
          "attributes": {
            "NORMAL": 6,
            "POSITION": 5,
            "TANGENT": 7,
            "TEXCOORD_0": 8
          },
          "indices": 9,
          "material": 0,
          "mode": 4
        }
      ]
    },
    {
      "name": "Object_2",
      "primitives": [
        {
          "attributes": {
            "NORMAL": 11,
            "POSITION": 10,
            "TANGENT": 12,
            "TEXCOORD_0": 13
          },
          "indices": 14,
          "material": 0,
          "mode": 4
        }
      ]
    }
  ],
  "nodes": [
    {
      "children": [
        1
      ],
      "matrix": [
        -0.10725964605808258,
        0.005707351490854996,
        0.994214653968811,
        0.0,
        0.0025274823419749737,
        -0.9999787211418152,
        0.006013114936649577,
        0.0,
        0.9942278265953064,
        0.0031578245107084274,
        0.10724294185638428,
        0.0,
        0.0,
        0.0,
        0.0,
        1.0
      ],
      "name": "Sketchfab_model"
    },
    {
      "children": [
        2,
        3,
        4
      ],
      "name": "DevilGlobe_Model_7.obj.cleaner.materialmerger.gles"
    },
    {
      "mesh": 0,
      "name": "Object_2"
    },
    {
      "mesh": 1,
      "name": "Object_3"
    },
    {
      "mesh": 2,
      "name": "Object_4"
    }
  ],
  "samplers": [
    {
      "magFilter": 9729,
      "minFilter": 9987,
      "wrapS": 10497,
      "wrapT": 10497
    }
  ],
  "scene": 0,
  "scenes": [
    {
      "name": "Sketchfab_Scene",
      "nodes": [
        0
      ]
    }
  ],
  "textures": [
    {
      "sampler": 0,
      "source": 0
    },
    {
      "sampler": 0,
      "source": 1
    },
    {
      "sampler": 0,
      "source": 2
    }
  ]
}
